<?xml version="1.0" encoding="UTF-8"?>
<!DOCTYPE svg PUBLIC "-//W3C//DTD SVG 1.1//EN" "http://www.w3.org/Graphics/SVG/1.1/DTD/svg11.dtd">
<!-- Creator: CorelDRAW 2020 (64 Bit) -->
<svg xmlns="http://www.w3.org/2000/svg" xml:space="preserve" width="200px" height="105px" version="1.1" style="shape-rendering:geometricPrecision; text-rendering:geometricPrecision; image-rendering:optimizeQuality; fill-rule:evenodd; clip-rule:evenodd"
viewBox="0 0 200 105"
 xmlns:xlink="http://www.w3.org/1999/xlink"
 xmlns:xodm="http://www.corel.com/coreldraw/odm/2003">
 <defs>
  <style type="text/css">
   <![CDATA[
    .fil0 {fill:#EBC852}
   ]]>
  </style>
 </defs>
 <g id="Camada_x0020_1">
  <metadata id="CorelCorpID_0Corel-Layer"/>
  <g id="_1652040960">
   <path class="fil0" d="M100.83 97.54c-4,0 -8.04,-0.46 -11.54,-2.22l-0.99 -0.5c-0.38,-0.2 -0.66,-0.35 -1.03,-0.54 -0.36,-0.21 -0.64,-0.37 -0.97,-0.6 -1.8,-1.21 -1.65,-1.16 -3.12,-2.3l-1.25 -1.11c-2.13,-2.15 -3.83,-4.34 -5.25,-7.17 -0.69,-1.38 -1.22,-2.85 -1.68,-4.52 -0.79,-2.92 -0.76,-4.82 -0.76,-7.88 0,-2.2 0.35,-3.7 0.77,-5.43 0.85,-3.38 3.01,-7.72 5.47,-10.24 0.18,-0.19 0.19,-0.25 0.35,-0.43l1.18 -1.18c0.14,-0.13 0.22,-0.23 0.35,-0.36l1.28 -1.08c1.83,-1.45 3.62,-2.6 5.81,-3.62 6.56,-3.03 14.21,-2.99 20.82,-0.1 1.02,0.45 1.25,0.63 2.1,1.04 1.6,0.8 3.47,2.04 4.73,3.29 3.18,3.19 5.42,6.3 7.08,10.43 0.31,0.76 0.58,1.58 0.77,2.46 0.76,3.44 0.99,6.78 0.51,10.33 -0.15,1.1 -0.89,3.77 -1.3,4.83 -0.3,0.77 -0.57,1.54 -0.91,2.23 -1.06,2.15 -2.01,3.78 -3.56,5.62 -0.76,0.9 -1.8,1.95 -2.71,2.72l-2.15 1.7c-1.35,0.96 -2.46,1.54 -3.93,2.28 -3.06,1.53 -6.53,2.35 -10.07,2.35zm-70.09 -42.92c0,1.12 5.36,3.23 6.25,3.57 0.44,0.17 0.78,0.26 1.25,0.4 3.46,1.01 3.51,0.69 7.37,0.81l1.57 0.08c3.77,0 18.76,-0.1 19.65,0.02 2.64,0.36 2.41,-0.9 1.03,3.5 -0.33,1.06 -0.43,2.29 -0.75,3.34 -0.08,0.27 -0.16,0.39 -0.18,0.68 -11.96,0 -23.92,0 -35.87,0 -3.06,0 -5.86,0.07 -8.89,0.07l-10.07 0c-0.45,0.01 -0.55,0.09 -1.02,0.08 -2.07,0 -5.8,1.41 -7.71,2.36 -0.27,0.13 -0.53,0.21 -0.81,0.36 -3.6,2.03 -3.55,2.17 0.28,4.08 0.61,0.31 1.09,0.52 1.73,0.79 1.18,0.51 2.47,0.94 3.68,1.35 1.8,0.6 3.91,0.49 5.82,0.48 0.52,0 0.77,0.06 1.18,0.08 1.57,0.08 3.42,0 5.03,0 5.04,0 10.07,0 15.1,0 3.4,0 6.58,0.08 9.92,0.08l15.1 0c0.83,0 5.58,0.01 6.18,0.11 0.66,0.11 0.56,0.67 0.72,1.49 0.45,2.26 1.08,3.62 1.44,5.15 -0.53,0.12 -1.24,0.07 -1.89,0.07 -0.73,0 -1.26,0.09 -1.89,0.08 -1.69,0 -11.11,-0.1 -12,0.04 -1.52,0.23 -8.67,-0.1 -11.82,0.21 -2.09,0.21 -4.21,1.07 -6.13,1.89 -1.18,0.51 -2.91,1.26 -3.86,2.12 -0.53,0.49 -0.46,0.68 0.04,1.18 0.61,0.6 1.61,1.16 2.44,1.57 1.86,0.93 3.81,1.73 5.86,2.16 1.67,0.34 1.75,0.41 3.6,0.41l3 0c0.45,0 0.53,0.07 0.93,0.08 2.6,0.08 5.34,0 7.95,0 2.73,0 5.21,0.07 7.95,0.07l11.01 0c0.53,0 0.53,-0.07 0.81,0.21 0.69,0.69 1.31,1.32 2,2.01 0.36,0.36 0.67,0.59 1.02,0.94l1.1 0.95c3,2.51 6.49,4.64 10.28,5.76 5.17,1.52 5.53,1.75 11.93,1.75 5.74,0 11.47,-1.9 16.25,-4.82 1.86,-1.14 2.93,-2.09 4.5,-3.35 0.3,-0.24 0.43,-0.37 0.7,-0.64 0.27,-0.27 0.46,-0.38 0.71,-0.63l1.96 -1.97c0.32,-0.31 0.54,-0.21 1.13,-0.21 3.54,0.02 30.81,0.1 31.59,-0.02 0.75,-0.13 1.43,-0.3 2.15,-0.45 0.67,-0.14 1.49,-0.34 2.12,-0.56 1.9,-0.64 3.8,-1.38 5.45,-2.48 1.7,-1.13 2.7,-1.41 -1.53,-3.52 -1.21,-0.6 -2.51,-1.12 -3.86,-1.57 -1.1,-0.37 -3.14,-1.06 -4.29,-1.05 -7.18,0.04 -14.31,-0.08 -21.48,-0.08 -0.82,0 -1.89,0.06 -2.67,0l-1.97 -0.07c-0.36,-0.02 -0.29,-0.08 -0.63,-0.08 0.22,-0.47 0.39,-1.35 0.56,-1.88 0.18,-0.6 0.39,-1.33 0.54,-1.97 0.17,-0.71 0.31,-1.9 0.61,-2.53 0.13,-0.28 0.02,-0.18 0.37,-0.26 0.87,-0.19 19.84,-0.11 21.2,-0.11 3.42,0 6.61,-0.08 9.99,-0.08 6.69,0 13.37,-0.01 20.06,0l4.87 -0.16c2.48,-0.2 5.36,-1.37 7.59,-2.48 0.33,-0.17 0.49,-0.29 0.81,-0.45 0.3,-0.15 0.53,-0.28 0.8,-0.46 1.18,-0.75 2.11,-1.23 0.3,-2.31 -3.53,-2.12 -5.81,-2.74 -9.74,-3.7 -0.92,-0.23 -17.99,-0.09 -20.21,-0.09 -10.48,0 -20.97,0 -31.46,0l-4.35 -0.14c-0.34,-0.1 -0.3,-0.42 -0.39,-0.79 -0.37,-1.53 -0.73,-3.16 -1.23,-4.66 -0.15,-0.45 -0.48,-1.34 -0.48,-1.87 1.79,0 3.42,-0.08 5.27,-0.08l13.37 0c0.99,0 1.77,-0.08 2.68,-0.08 1.75,0.01 3.6,0.06 5.35,0.01 2.56,-0.08 5.98,-1.4 8.26,-2.52 0.61,-0.3 3.22,-1.57 3.22,-2.2 0,-0.56 -2.44,-1.92 -2.99,-2.19 -1.18,-0.59 -2.38,-1.1 -3.65,-1.54 -2.76,-0.98 -4.93,-1.14 -7.91,-1.13 -0.55,0 -0.82,-0.07 -1.26,-0.08 -3.39,-0.1 -6.97,0 -10.38,0 -0.84,0 -17.76,0.09 -18.16,-0.02 -0.42,-0.12 -2.1,-2.1 -2.66,-2.52l-1.4 -1.18c-0.98,-0.79 -2,-1.48 -3.04,-2.16 -3.91,-2.6 -8.59,-4.23 -13.28,-4.89 -2.19,-0.3 -2.21,-0.3 -4.42,-0.3 -7.61,0 -13.42,2.22 -18.4,5.5l-3.78 2.9c-0.6,0.46 -2.31,2.51 -2.76,2.59 -0.6,0.1 -26.66,0.16 -27.84,0.16 -1.82,0 -3.41,0.07 -5.19,0.07 -1.98,0.01 -4.6,0.96 -6.36,1.67 -0.64,0.25 -4.97,2.14 -4.97,3.05z"/>
   <path class="fil0" d="M99.49 87.81c4.09,0 8.18,-1.39 11.04,-4.06 1.83,-1.71 2.63,-2.65 3.81,-4.99 2.04,-4.05 2.02,-9.55 0.05,-13.65 -1.99,-4.13 -5.93,-7.56 -10.36,-8.66 -3.96,-0.97 -7.28,-0.57 -10.98,1.07 -0.85,0.38 -2.27,1.27 -3.01,1.87 -1,0.82 -1.64,1.44 -2.48,2.46 -3.39,4.13 -4.53,9.82 -2.77,15.12 0.18,0.53 0.35,0.9 0.57,1.4 1.34,3.11 4.13,6 7.11,7.59 0.28,0.15 0.37,0.23 0.66,0.35 1.17,0.47 1.53,0.72 2.89,1.05 0.98,0.24 2.23,0.45 3.47,0.45z"/>
   <path class="fil0" d="M63.15 0.47c0,0.7 -0.08,1.09 -0.08,1.8l0 8.48c0,1.6 0.08,2.94 0.08,4.55 0,1.23 -0.12,3.4 0.05,4.5 0.08,0.57 0.03,2.61 0.03,3.43 0,0.5 0.07,0.67 0.08,1.09 0.02,0.74 -0.06,1.53 0.04,2.23 0.15,1.01 -0.08,0.57 0.44,1.84 0.65,1.59 1.74,2.87 3.24,3.68 0.55,0.29 1.04,0.49 1.69,0.67 3.2,0.89 8.66,0.81 11.24,-1.38 1.18,-0.99 2.23,-2.44 2.52,-4 0.44,-2.33 0.26,-14.24 0.26,-15.75 0,-3.83 -0.08,-7.4 -0.08,-11.22l-7.08 0c0,0.66 -0.08,1 -0.08,1.64 0.04,6.54 -0.08,13.07 -0.08,19.62 0,1.52 0.42,3.59 -0.81,4.53 -1.02,0.77 -3.54,0.95 -3.98,-1.39 -0.21,-1.13 -0.16,-2.53 -0.16,-3.84l-0.08 -1.89c0,-5.6 0.07,-11.48 0,-17.03 0,-0.39 -0.08,-0.54 -0.08,-0.94 0.01,-0.53 0.3,-0.71 -1.34,-0.7l-5.19 0c-0.35,0.01 -0.28,0.07 -0.63,0.08z"/>
   <path class="fil0" d="M49.54 12.79l0.65 2.33c0.23,1.15 0.94,5 1.05,6.04 0.05,0.53 -0.42,0.49 -1.15,0.49 -0.96,0 -1.36,-0.19 -1.88,-0.23 0,-0.66 0.81,-5.47 0.98,-6.48l0.35 -2.15zm-10.77 19.93c0.24,0.02 0.28,0.08 0.55,0.08l5.03 0c0.62,0 0.9,-0.08 1.5,-0.08l0.8 -3.51c0.42,-1.82 -0.26,-1.59 2.81,-1.59 1,0 2,0 2.99,0 0.04,0.4 0.19,0.88 0.29,1.29 0.12,0.47 0.19,0.77 0.3,1.27 0.13,0.62 0.55,2.04 0.59,2.54l7.48 0.08c0,-1 -0.17,-1.54 -0.41,-2.5l-1.53 -6.32c-0.71,-2.83 -1.3,-5.61 -2.01,-8.43 -0.35,-1.36 -0.65,-2.84 -0.99,-4.19 -0.33,-1.3 -2.36,-10.07 -2.56,-10.48 -0.27,-0.59 -1.35,-0.57 -2.1,-0.57l-5.11 0c-0.3,0 -0.32,0.51 -0.4,0.78l-1.67 7.12c-0.54,2.57 -1.32,5.52 -1.9,8.15 -0.29,1.36 -0.66,2.62 -0.96,3.99l-1.41 6.12c-0.35,1.51 -1.29,4.96 -1.29,6.25z"/>
   <path class="fil0" d="M28.07 32.8c1.12,0 5.12,0.18 5.72,-0.18 0.34,-0.21 0.65,-1.67 0.78,-2.12l1.94 -6.93c1.32,-4.51 2.53,-9.4 3.84,-13.84 0.45,-1.51 0.84,-3.04 1.28,-4.6l0.96 -3.44c0.11,-0.37 0.27,-0.79 0.27,-1.22 -0.81,-0.19 -6.18,-0.08 -7.48,-0.08 -0.62,2.67 -1.48,5.7 -2.17,8.42 -0.24,0.97 -1.86,7.6 -2.23,8.37 -0.38,-0.28 -1.13,-3.63 -1.24,-4.1l-2.77 -10.57c-0.19,-0.71 -0.39,-1.42 -0.55,-2.12l-7.71 0c0,0.68 4.18,14.64 4.65,16.23l1.74 6.04c0.18,0.66 0.42,1.37 0.61,2.05l1.74 6.04c0.2,0.64 0.46,1.37 0.62,2.05z"/>
   <path class="fil0" d="M147.79 0.54l0 20.33c0,1.96 -0.07,4.13 0.08,5.97l0 4.47c0,0.61 0.08,0.95 0.08,1.49l8.58 0c1.69,0 3.11,-0.08 4.79,-0.08 0,-0.6 0.08,-0.87 0.08,-1.49l0 -3.77c0,-0.57 -0.08,-0.78 -0.08,-1.33 -1.36,-0.12 -0.63,-0.14 -2.28,-0.16 -0.45,0 -0.59,-0.08 -1.1,-0.08l-2.75 0c0,-0.35 -0.04,-0.39 -0.07,-0.64 -0.1,-0.92 -0.09,-3.73 -0.09,-4.69 0,-0.55 0.45,-0.56 1.26,-0.56 0.63,0.01 1.26,0.01 1.89,0.01 0.69,0 1.23,-0.08 1.81,-0.08 0.55,0.01 0.63,0.18 0.63,-1.57 0,-1.85 -0.08,-3.42 -0.08,-5.26l-4.72 -0.08c-0.32,-0.01 -0.37,-0.08 -0.71,-0.08 0,-0.41 -0.06,-0.43 -0.08,-0.78 -0.02,-0.42 -0.19,-4.52 0.08,-4.79 0.17,-0.17 5.43,-0.23 6.14,-0.23 0,-1.07 -0.06,-5.37 0.06,-6.15 0.04,-0.32 0.1,-0.68 -0.22,-0.68l-13.06 0c-0.18,0 -0.24,0.05 -0.24,0.23z"/>
   <path class="fil0" d="M163.37 16.4c0,4.41 1.74,9.62 4.7,12.57l1.03 0.94c2.99,2.41 7.29,4.09 11.27,2.9 0.86,-0.26 0.93,-0.52 0.93,-1.97l0 -4.01c0,-0.58 -0.07,-0.82 -0.31,-1.17 -1.07,0.02 -3.27,1.38 -6.12,-0.57 -2.23,-1.52 -3.34,-4.15 -3.71,-6.81l-0.16 -1.96c0.07,-2.24 0.59,-4.73 1.89,-6.52 1.58,-2.17 3.83,-3.26 6.92,-2.74 0.5,0.08 0.77,0.23 1.34,0.23 0.13,-0.58 0.15,-3.61 0.15,-4.47 0,-0.66 -0.05,-1.04 -0.07,-1.65 -0.02,-0.57 -0.29,-0.59 -0.94,-0.79 -2.86,-0.89 -6.74,-0.11 -9.04,1.28 -1.15,0.69 -2.26,1.51 -3.18,2.47 -0.2,0.2 -0.24,0.31 -0.43,0.51 -1.19,1.25 -2.53,3.58 -3.12,5.37 -0.34,1.01 -0.59,1.81 -0.8,2.97 -0.18,1 -0.35,2.29 -0.35,3.42z"/>
   <path class="fil0" d="M127.81 7.21l4.88 0.08c0,2.19 0.08,4.12 0.08,6.28l0.08 19.15 7.08 0.08 0.08 -25.51 4.72 -0.15c0,-0.62 0.15,-1.16 0.15,-1.89 0,-1.43 0.15,-3.63 -0.15,-4.94l-16.92 0 0 6.9z"/>
   <path class="fil0" d="M98.16 1.48l0 5.42c0,0.37 0.63,0.24 1.02,0.23 0.54,0 0.72,0.09 1.26,0.09 0.96,-0.01 1.72,0.07 2.59,0.07 0,8.42 0.16,17.04 0.16,25.43l7.08 0.08c0,-2.68 -0.1,-22.07 0.06,-23.25l0.1 -2.34c0.75,0 1.2,-0.07 1.97,-0.07l2.75 0 0 -6.75 -16.68 0c-0.27,0 -0.23,0.18 -0.26,0.44 -0.03,0.14 -0.05,0.4 -0.05,0.65z"/>
   <path class="fil0" d="M86.75 0.47l0 30.44c0,1.52 -0.2,1.8 0.39,1.82 4.43,0.17 8.86,-0.01 13.3,-0.01l0 -6.67c-1.17,-0.27 -2.32,-0.1 -3.22,-0.08 -0.42,0.02 -2.61,0.03 -2.92,-0.07 -0.33,-0.11 -0.25,-0.18 -0.24,-0.63l0.01 -10.13c0,-0.28 0.01,-0.59 0,-0.87 -0.01,-0.38 -0.07,-0.39 -0.08,-0.77 -0.05,-1.54 0.09,-11.73 -0.02,-12.63 -0.03,-0.24 -0.01,-0.56 -0.3,-0.56 -1.26,0 -5.87,-0.09 -6.92,0.16z"/>
   <path class="fil0" d="M114.68 14.75c0,1.27 -0.1,4.24 0.15,5.33 0.4,0 0.43,0.08 0.87,0.08l11.96 0 -0.01 -2.82c0,-0.54 0.09,-0.72 0.09,-1.26 -0.01,-0.7 -0.03,-1.95 -0.16,-2.51 -0.4,0 -0.43,-0.08 -0.87,-0.08l-11.17 0.08c-0.61,-0.01 -0.86,-0.19 -0.86,1.18z"/>
  </g>
 </g>
</svg>
