<?xml version="1.0" encoding="UTF-8"?>
<!DOCTYPE svg PUBLIC "-//W3C//DTD SVG 1.1//EN" "http://www.w3.org/Graphics/SVG/1.1/DTD/svg11.dtd">
<!-- Creator: CorelDRAW 2020 (64 Bit) -->
<svg xmlns="http://www.w3.org/2000/svg" xml:space="preserve" width="55px" height="100px" version="1.1" style="shape-rendering:geometricPrecision; text-rendering:geometricPrecision; image-rendering:optimizeQuality; fill-rule:evenodd; clip-rule:evenodd"
viewBox="0 0 55 100"
 xmlns:xlink="http://www.w3.org/1999/xlink"
 xmlns:xodm="http://www.corel.com/coreldraw/odm/2003">
 <defs>
  <style type="text/css">
   <![CDATA[
    .fil0 {fill:#22364F}
   ]]>
  </style>
 </defs>
 <g id="Camada_x0020_1">
  <metadata id="CorelCorpID_0Corel-Layer"/>
  <path class="fil0" d="M-0.5 57.36l20.02 0c-0.21,0.91 -0.66,1.76 -0.98,2.65 -0.33,0.93 -0.69,1.74 -1.05,2.69 -0.35,0.92 -0.63,1.71 -1,2.62l-3.1 8.01c-0.7,1.8 -1.4,3.48 -2.05,5.31 -0.33,0.91 -0.65,1.72 -1.01,2.62l-6.2 16.01c-0.28,0.78 -0.93,1.91 -1,2.73 0.38,-0.25 0.85,-0.85 1.18,-1.24l2.01 -2.28c0.27,-0.34 0.52,-0.52 0.79,-0.86l12.05 -13.45c1.41,-1.4 2.64,-3.02 4.02,-4.45 0.33,-0.34 0.46,-0.58 0.82,-0.93l1.41 -1.56c0.25,-0.31 -0.15,0.18 0.1,-0.12l2.89 -3.27c1.58,-1.79 3.26,-3.49 4.79,-5.32l1.21 -1.32c0.31,-0.37 0.52,-0.53 0.83,-0.93 0.26,-0.33 0.55,-0.52 0.81,-0.85 0.3,-0.38 0.5,-0.56 0.81,-0.94l2.38 -2.67c1.37,-1.37 2.69,-3.15 4.02,-4.45l4.84 -5.39c1.19,-1.18 3.28,-3.69 4.58,-5.09 0.02,-0.02 0.04,-0.04 0.06,-0.06 0.31,-0.34 1.63,-1.68 1.77,-2.07l-20.02 0c0.37,-0.78 0.66,-1.78 1.01,-2.62 0.35,-0.87 0.67,-1.77 1.03,-2.7 0.36,-0.94 0.7,-1.71 1.03,-2.61 1.29,-3.6 2.77,-7.12 4.14,-10.69l6.7 -17.38c0.18,-0.49 0.34,-0.85 0.53,-1.33 0.33,-0.85 1.87,-4.63 2.06,-5.42l-6.41 7.11c-0.27,0.32 -0.52,0.51 -0.81,0.84 -0.02,0.03 -0.08,0.1 -0.1,0.12l-0.3 0.36c-0.17,0.19 -0.27,0.26 -0.44,0.44l-1.59 1.82c-0.15,0.15 -0.25,0.22 -0.39,0.38 -0.19,0.22 -0.19,0.28 -0.38,0.49l-4.07 4.51c-0.36,0.35 -0.46,0.53 -0.77,0.88l-4.43 4.92c-0.02,0.01 -0.04,0.04 -0.05,0.06l-10.81 12.05c-1.19,1.35 -2.49,2.6 -3.63,3.96 -0.19,0.23 -0.18,0.27 -0.39,0.49l-8.91 9.89c-0.32,0.33 -0.42,0.55 -0.77,0.88 -0.16,0.17 -0.29,0.27 -0.44,0.44l-6.79 7.72z"/>
 </g>
</svg>
