<?xml version="1.0" encoding="UTF-8"?>
<!DOCTYPE svg PUBLIC "-//W3C//DTD SVG 1.1//EN" "http://www.w3.org/Graphics/SVG/1.1/DTD/svg11.dtd">
<!-- Creator: CorelDRAW 2020 (64 Bit) -->
<svg xmlns="http://www.w3.org/2000/svg" xml:space="preserve" width="92px" height="99px" version="1.1" style="shape-rendering:geometricPrecision; text-rendering:geometricPrecision; image-rendering:optimizeQuality; fill-rule:evenodd; clip-rule:evenodd"
viewBox="0 0 92 98.51"
 xmlns:xlink="http://www.w3.org/1999/xlink"
 xmlns:xodm="http://www.corel.com/coreldraw/odm/2003">
 <defs>
  <style type="text/css">
   <![CDATA[
    .fil0 {fill:#26608F}
   ]]>
  </style>
 </defs>
 <g id="Camada_x0020_1">
  <metadata id="CorelCorpID_0Corel-Layer"/>
  <path class="fil0" d="M55.46 75.82c-4.25,0 -9.41,-1.11 -14.02,-2.4 -0.37,0 -0.56,-0.18 -0.74,-0.18 -1.11,-0.37 -1.85,-1.48 -1.48,-2.59 0.37,-1.1 1.48,-1.84 2.59,-1.47 0.18,0 0.55,0.18 0.73,0.18 2.03,0.56 5.72,1.48 9.41,2.03 5.54,0.74 7.2,-0.18 7.75,-0.55l0.1 -0.1c0.07,-0.28 0.04,-0.59 -0.1,-1.01l0 0c-0.37,-2.21 -3.69,-4.43 -9.22,-6.09 -5.91,-1.66 -12.55,-2.21 -16.79,-2.21 -2.03,0 -3.69,0.19 -4.8,0.37 -1.25,0.18 -5.99,1.75 -8.97,2.69l6.75 19.75c2.51,-0.87 4.67,-1.04 6.83,-1.04 3.88,0 7.02,1.1 9.97,2.03 3.13,1.1 5.9,2.03 9.96,2.03l0 0c0.74,0 1.47,0 2.03,0 3.5,-0.37 11.8,-4.06 19.37,-8.86 9.96,-6.27 13.09,-10.51 12.91,-11.62 -0.18,-2.03 -3.32,-2.77 -5.35,-2.77 -0.37,0 -0.74,0 -1.11,0 -5.39,0.72 -13.42,5.3 -17.92,9.12 -0.23,0.33 -0.47,0.61 -0.71,0.85 -1.84,1.29 -4.24,1.84 -7.19,1.84zm4.06 -69.73c-0.56,0.92 -1.3,1.66 -1.85,2.58 -2.4,3.14 -4.8,6.46 -4.8,9.04 0,4.24 2.95,7.56 6.65,7.56 3.68,0 6.64,-3.32 6.64,-7.56 0,-2.58 -2.4,-5.9 -4.8,-9.04 -0.55,-0.92 -1.11,-1.85 -1.84,-2.58zm0 23.43c-6.09,0 -10.89,-5.35 -10.89,-11.81 0,-3.88 2.77,-7.93 5.54,-11.62 1.29,-1.66 2.58,-3.32 3.32,-4.98 0.37,-0.74 1.1,-1.11 1.84,-1.11l0 0c0.74,0 1.48,0.37 1.85,1.11 0.92,1.66 2.21,3.32 3.5,5.16 2.77,3.69 5.53,7.56 5.53,11.44 0.37,6.46 -4.61,11.81 -10.69,11.81zm-15.5 -2.4c-0.74,1.11 -1.66,2.21 -2.4,3.32 -2.77,3.87 -5.72,7.75 -5.72,10.88 0,5.17 3.69,9.23 8.12,9.23 4.43,0 8.12,-4.06 8.12,-9.23 0,-3.13 -2.95,-7.01 -5.54,-10.7 -0.92,-1.1 -1.84,-2.39 -2.58,-3.5zm0 27.67c-6.83,0 -12.36,-6.09 -12.36,-13.47 0,-4.43 3.32,-9.04 6.45,-13.28 1.48,-2.03 2.96,-4.06 4.07,-5.9 0.36,-0.74 1.1,-1.11 1.84,-1.11l0 0c0.74,0 1.48,0.37 1.84,1.11 1.11,2.03 2.59,4.05 4.06,5.9 3.14,4.24 6.46,8.67 6.46,13.28 0,7.38 -5.53,13.47 -12.36,13.47zm-32.47 17.71c-0.55,0 -1.11,-0.19 -1.47,-0.56 -0.37,-0.36 -0.56,-0.92 -0.56,-1.47 0,-0.55 0.19,-1.11 0.56,-1.48 0.37,-0.36 0.92,-0.55 1.47,-0.55 0.55,0 1.11,0.19 1.48,0.55 0.37,0.37 0.55,0.93 0.55,1.48 0,0.55 -0.18,1.11 -0.55,1.47 -0.37,0.37 -0.93,0.56 -1.48,0.56zm-6.82 -5.53l9.22 26.74 10.15 -3.5 -0.63 -1.81c-0.21,-0.22 -0.38,-0.47 -0.48,-0.77l-8.12 -23.62c-0.06,-0.17 -0.09,-0.34 -0.11,-0.51l-10.03 3.47zm7.93 31.54c-0.37,0 -0.56,0 -0.92,-0.18 -0.56,-0.19 -0.93,-0.74 -1.11,-1.3l-10.52 -30.8c-0.36,-1.11 0.19,-2.4 1.29,-2.77l14.21 -4.8c1.11,-0.37 2.4,0.19 2.77,1.29l0.18 0.52c3.24,-1.13 7.99,-2.64 9.23,-2.91 1.29,-0.37 3.32,-0.37 5.71,-0.37 4.61,0 11.81,0.55 18.09,2.39 6.21,1.73 10.16,4.27 11.7,7.46 0.21,0.12 0.39,0.28 0.55,0.47 5.13,-3.61 11.81,-6.83 16.89,-7.56 0.55,0 1.11,-0.18 1.66,-0.18 4.43,0 9.23,2.03 9.59,6.64 0.19,2.22 -1.29,4.8 -4.61,7.93 -2.58,2.4 -6.09,4.98 -10.14,7.57 -7.02,4.42 -16.42,9.22 -21.22,9.59 -0.92,-0.18 -1.66,0 -2.58,0l0 0c-4.62,0 -8.12,-1.11 -11.25,-2.21 -2.77,-0.93 -5.36,-1.85 -8.68,-1.85 -1.75,0 -3.51,0.2 -5.49,0.74l0.88 2.58c0.37,1.11 -0.18,2.4 -1.29,2.77l-14.2 4.8c-0.37,0.18 -0.56,0.18 -0.74,0.18z"/>
 </g>
</svg>
