<?xml version="1.0" encoding="UTF-8"?>
<!DOCTYPE svg PUBLIC "-//W3C//DTD SVG 1.1//EN" "http://www.w3.org/Graphics/SVG/1.1/DTD/svg11.dtd">
<!-- Creator: CorelDRAW 2020 (64 Bit) -->
<svg xmlns="http://www.w3.org/2000/svg" xml:space="preserve" width="89px" height="88px" version="1.1" style="shape-rendering:geometricPrecision; text-rendering:geometricPrecision; image-rendering:optimizeQuality; fill-rule:evenodd; clip-rule:evenodd"
viewBox="0 0 89 87.54"
 xmlns:xlink="http://www.w3.org/1999/xlink"
 xmlns:xodm="http://www.corel.com/coreldraw/odm/2003">
 <defs>
  <style type="text/css">
   <![CDATA[
    .fil0 {fill:#26608F}
   ]]>
  </style>
 </defs>
 <g id="Camada_x0020_1">
  <metadata id="CorelCorpID_0Corel-Layer"/>
  <path class="fil0" d="M84.87 74.72c-3.83,0 -75.14,0 -81.04,0l0 -43.7 7.37 0 0 34.67c0,1.02 0.88,1.89 1.91,1.89l62.63 0c1.03,0 1.91,-0.87 1.91,-1.89l0 -34.67 7.37 0 0 43.7 -0.15 0zm-23.87 -34.66c1.03,0 1.92,0.87 1.92,1.89 0,1.02 -0.89,1.89 -1.92,1.89 -1.03,0 -1.91,-0.87 -1.91,-1.89 0,-1.02 0.88,-1.89 1.91,-1.89zm0 7.28c3.1,0 5.6,-2.48 5.6,-5.54 0,-3.06 -2.5,-5.53 -5.6,-5.53 -3.09,0 -5.6,2.47 -5.6,5.53 0,3.06 2.51,5.54 5.6,5.54zm-16.65 -7.28c1.03,0 1.92,0.87 1.92,1.89 0,1.02 -0.89,1.89 -1.92,1.89 -1.03,0 -1.91,-0.87 -1.91,-1.89 0,-1.02 0.88,-1.89 1.91,-1.89zm0 7.28c3.1,0 5.6,-2.48 5.6,-5.54 0,-3.06 -2.5,-5.53 -5.6,-5.53 -3.09,0 -5.6,2.47 -5.6,5.53 0,3.06 2.51,5.54 5.6,5.54zm-16.5 -7.28c1.03,0 1.91,0.87 1.91,1.89 0,1.02 -0.88,1.89 -1.91,1.89 -1.03,0 -1.92,-0.87 -1.92,-1.89 0,-1.02 0.89,-1.89 1.92,-1.89zm0 7.28c3.09,0 5.6,-2.48 5.6,-5.54 0,-3.06 -2.51,-5.53 -5.6,-5.53 -3.09,0 -5.6,2.47 -5.6,5.53 0,3.06 2.51,5.54 5.6,5.54zm33.15 -21.85c1.03,0 1.92,0.87 1.92,1.89 0,1.02 -0.89,1.9 -1.92,1.9 -1.03,0 -1.91,-0.88 -1.91,-1.9 0,-1.02 0.88,-1.89 1.91,-1.89zm0 7.28c3.1,0 5.6,-2.47 5.6,-5.53 0,-3.06 -2.5,-5.54 -5.6,-5.54 -3.09,0 -5.6,2.48 -5.6,5.54 0,3.06 2.51,5.53 5.6,5.53zm-16.65 -7.28c1.03,0 1.92,0.87 1.92,1.89 0,1.02 -0.89,1.9 -1.92,1.9 -1.03,0 -1.91,-0.88 -1.91,-1.9 0,-1.02 0.88,-1.89 1.91,-1.89zm0 7.28c3.1,0 5.6,-2.47 5.6,-5.53 0,-3.06 -2.5,-5.54 -5.6,-5.54 -3.09,0 -5.6,2.48 -5.6,5.54 0,3.06 2.51,5.53 5.6,5.53zm-16.5 -7.28c1.03,0 1.91,0.87 1.91,1.89 0,1.02 -0.88,1.9 -1.91,1.9 -1.03,0 -1.92,-0.88 -1.92,-1.9 0,-1.02 0.89,-1.89 1.92,-1.89zm0 7.28c3.09,0 5.6,-2.47 5.6,-5.53 0,-3.06 -2.51,-5.54 -5.6,-5.54 -3.09,0 -5.6,2.48 -5.6,5.54 0,3.06 2.51,5.53 5.6,5.53zm33.15 -21.85c1.03,0 1.92,0.88 1.92,1.9 0,1.02 -0.89,1.89 -1.92,1.89 -1.03,0 -1.91,-0.87 -1.91,-1.89 0,-1.02 0.88,-1.9 1.91,-1.9zm0 7.29c3.1,0 5.6,-2.48 5.6,-5.54 0,-3.06 -2.5,-5.53 -5.6,-5.53 -3.09,0 -5.6,2.47 -5.6,5.53 0,3.06 2.51,5.54 5.6,5.54zm-16.65 -7.29c1.03,0 1.92,0.88 1.92,1.9 0,1.02 -0.89,1.89 -1.92,1.89 -1.03,0 -1.91,-0.87 -1.91,-1.89 0.14,-1.02 0.88,-1.9 1.91,-1.9zm0 7.29c3.1,0 5.6,-2.48 5.6,-5.54 0,-3.06 -2.5,-5.53 -5.6,-5.53 -3.09,0 -5.6,2.47 -5.6,5.53 0,3.06 2.51,5.54 5.6,5.54zm-16.5 -7.29c1.03,0 1.91,0.88 1.91,1.9 0,1.02 -0.88,1.89 -1.91,1.89 -1.03,0 -1.92,-0.87 -1.92,-1.89 0,-1.02 0.89,-1.9 1.92,-1.9zm0 7.29c3.09,0 5.6,-2.48 5.6,-5.54 0,-3.06 -2.51,-5.53 -5.6,-5.53 -3.09,0 -5.6,2.47 -5.6,5.53 0,3.06 2.51,5.54 5.6,5.54zm49.66 65.54l-5.6 0 0 -5.53 5.6 0 0 5.53zm-60.71 0l-5.6 0 0 -5.53 5.6 0 0 5.53zm-1.92 -70.64c0,-5.24 4.28,-9.47 9.58,-9.47l39.78 0c5.31,0 9.58,4.23 9.58,9.47 0,0.58 0,31.9 0,37.87l-58.94 0c0,-1.02 0,-32.63 0,-37.87zm0 41.51l58.94 0 0 9.18 -58.94 0 0 -9.18zm71.91 -27.24l-9.28 0 0 -14.27c0,-7.28 -5.9,-13.11 -13.27,-13.11l-39.78 0c-7.37,0 -13.26,5.83 -13.26,13.11l0 14.27 -9.28 0c-1.04,0 -1.92,0.88 -1.92,1.9l0 47.19c0,1.02 0.88,1.89 1.92,1.89l5.6 0 0 7.29c0,1.02 0.88,1.89 1.91,1.89l9.14 0c1.03,0 1.91,-0.87 1.91,-1.89l0 -7.29 47.89 0 0 7.29c0,1.02 0.88,1.89 1.92,1.89l9.28 0c1.03,0 1.91,-0.87 1.91,-1.89l0 -7.29 5.6 0c1.03,0 1.92,-0.87 1.92,-1.89l0 -47.34c-0.44,-1.02 -1.33,-1.75 -2.21,-1.75z"/>
 </g>
</svg>
