<?xml version="1.0" encoding="UTF-8"?>
<!DOCTYPE svg PUBLIC "-//W3C//DTD SVG 1.1//EN" "http://www.w3.org/Graphics/SVG/1.1/DTD/svg11.dtd">
<!-- Creator: CorelDRAW 2020 (64 Bit) -->
<svg xmlns="http://www.w3.org/2000/svg" xml:space="preserve" width="91px" height="104px" version="1.1" style="shape-rendering:geometricPrecision; text-rendering:geometricPrecision; image-rendering:optimizeQuality; fill-rule:evenodd; clip-rule:evenodd"
viewBox="0 0 91 103.37"
 xmlns:xlink="http://www.w3.org/1999/xlink"
 xmlns:xodm="http://www.corel.com/coreldraw/odm/2003">
 <defs>
  <style type="text/css">
   <![CDATA[
    .fil0 {fill:url(#id0)}
   ]]>
  </style>
  <linearGradient id="id0" gradientUnits="userSpaceOnUse" x1="45.5" y1="-1.29" x2="45.5" y2="111.12">
   <stop offset="0" style="stop-opacity:1; stop-color:#FFBF00"/>
   <stop offset="1" style="stop-opacity:1; stop-color:#F2A50C"/>
  </linearGradient>
 </defs>
 <g id="Camada_x0020_1">
  <metadata id="CorelCorpID_0Corel-Layer"/>
  <path class="fil0" d="M45.5 15.8c-1.14,0 -2.29,-0.95 -2.29,-2.28l0.01 -11.24c0,-1.14 0.95,-2.28 2.28,-2.28 1.14,0 2.28,0.95 2.28,2.28l0.01 11.24c0,1.33 -1.15,2.28 -2.29,2.28zm-6.85 34.46l6.28 0c0.76,0 1.52,0.38 1.9,0.95 0.38,0.57 0.38,1.52 0.19,2.09l-2.66 5.9 12.94 -13.7 -7.04 -0.76c-0.76,-0.19 -1.33,-0.58 -1.52,-1.14 -0.39,-0.58 -0.39,-1.34 -0.19,-1.91l2.66 -6.28 -6.28 0 -6.28 14.85zm-1.91 22.46c-0.38,0 -0.95,-0.19 -1.14,-0.38 -0.95,-0.57 -1.14,-1.71 -0.76,-2.66l6.85 -14.85 -6.28 0c-0.76,0 -1.52,-0.38 -1.9,-0.95 -0.38,-0.58 -0.57,-1.34 -0.19,-2.1l8.37 -19.42c0.38,-0.76 1.14,-1.33 2.1,-1.33l11.04 0c0.76,0 1.52,0.38 1.9,0.95 0.38,0.57 0.57,1.34 0.19,2.1l-2.85 6.85 8.37 1.14c0.76,0.19 1.53,0.76 1.72,1.53 0.19,0.76 0,1.71 -0.58,2.28l-25.31 26.08c-0.39,0.57 -0.96,0.76 -1.53,0.76zm8.57 -48.73c-15.23,0 -27.6,12.37 -27.6,27.6 0,15.23 12.37,27.6 27.6,27.6 15.23,0 27.61,-12.37 27.61,-27.6 0,-15.23 -12.38,-27.6 -27.61,-27.6zm0 59.58c-17.7,0 -31.98,-14.28 -31.98,-31.98 0,-17.7 14.28,-31.98 31.98,-31.98 17.7,0 31.98,14.28 31.98,31.98 0,17.51 -14.47,31.98 -31.98,31.98zm-18.09 -60.92c-0.76,0 -1.52,-0.38 -1.9,-1.14l-3.43 -6.09c-0.57,-1.14 -0.19,-2.48 0.76,-3.04 1.15,-0.58 2.48,-0.2 3.05,0.76l3.43 6.09c0.57,1.14 0.19,2.47 -0.76,3.04 -0.38,0.19 -0.76,0.38 -1.15,0.38zm-18.08 31.42l-6.85 0c-1.15,0 -2.29,-0.96 -2.29,-2.29 0,-1.14 0.95,-2.28 2.29,-2.28l6.85 0c1.14,0 2.28,0.95 2.28,2.28 0,1.14 -0.95,2.29 -2.28,2.29zm14.85 37.31c-0.38,0 -0.76,0 -1.14,-0.38 -1.15,-0.58 -1.53,-1.91 -0.77,-3.05l3.43 -6.09c0.57,-1.14 1.91,-1.52 3.05,-0.76 1.14,0.57 1.52,1.9 0.76,3.04l-3.43 6.1c-0.57,0.76 -1.14,1.14 -1.9,1.14zm43.02 0c-0.76,0 -1.52,-0.38 -1.9,-1.14l-3.43 -5.91c-0.57,-1.14 -0.19,-2.47 0.76,-3.04 1.14,-0.57 2.48,-0.19 3.05,0.76l3.43 6.09c0.57,1.15 0.19,2.48 -0.77,3.05 -0.38,0.19 -0.76,0.19 -1.14,0.19zm21.71 -37.31l-6.86 0c-1.14,0 -2.28,-0.96 -2.28,-2.29 0,-1.14 0.95,-2.28 2.28,-2.28l6.86 0c1.14,0 2.28,0.95 2.28,2.28 -0.19,1.14 -1.14,2.29 -2.28,2.29zm-25.14 -31.42c-0.38,0 -0.76,0 -1.14,-0.38 -1.14,-0.57 -1.33,-1.9 -0.76,-3.04l3.43 -6.09c0.57,-1.15 1.9,-1.34 3.04,-0.76 1.15,0.56 1.34,1.9 0.77,3.04l-3.43 6.09c-0.38,0.76 -1.14,1.14 -1.91,1.14zm-51.01 12.38c-0.39,0 -0.77,-0.19 -1.15,-0.38l-9.71 -5.71c-1.14,-0.58 -1.33,-1.91 -0.76,-3.05 0.57,-1.14 1.91,-1.33 3.05,-0.76l9.71 5.71c1.14,0.57 1.33,1.9 0.76,3.05 -0.38,0.76 -1.14,1.14 -1.9,1.14zm-9.9 43.59c-0.76,0 -1.53,-0.38 -1.91,-1.14 -0.57,-1.14 -0.19,-2.47 0.76,-3.04l9.71 -5.72c1.15,-0.57 2.48,-0.19 3.05,0.77 0.57,1.14 0.19,2.47 -0.76,3.04l-9.71 5.71c-0.38,0.38 -0.76,0.38 -1.14,0.38zm42.83 24.75c-1.14,0 -2.29,-0.95 -2.29,-2.28l0.01 -11.43c0,-1.14 0.95,-2.28 2.28,-2.28 1.14,0 2.28,0.95 2.28,2.28l0.01 11.43c0,1.33 -1.15,2.28 -2.29,2.28zm42.83 -24.75c-0.38,0 -0.76,0 -1.14,-0.38l-9.9 -5.71c-1.14,-0.57 -1.33,-1.9 -0.76,-3.04 0.57,-1.15 1.9,-1.34 3.05,-0.77l9.9 5.72c1.14,0.57 1.33,1.9 0.76,3.04 -0.38,0.76 -1.15,1.14 -1.91,1.14zm-9.9 -43.59c-0.76,0 -1.52,-0.38 -1.9,-1.14 -0.57,-1.15 -0.19,-2.48 0.76,-3.05l9.9 -5.71c1.14,-0.57 2.48,-0.19 3.05,0.76 0.57,0.95 0.19,2.47 -0.76,3.05l-9.9 5.71c-0.38,0.19 -0.76,0.38 -1.15,0.38z"/>
 </g>
</svg>
