<?xml version="1.0" encoding="UTF-8"?>
<!DOCTYPE svg PUBLIC "-//W3C//DTD SVG 1.1//EN" "http://www.w3.org/Graphics/SVG/1.1/DTD/svg11.dtd">
<!-- Creator: CorelDRAW 2020 (64 Bit) -->
<svg xmlns="http://www.w3.org/2000/svg" xml:space="preserve" width="77px" height="94px" version="1.1" style="shape-rendering:geometricPrecision; text-rendering:geometricPrecision; image-rendering:optimizeQuality; fill-rule:evenodd; clip-rule:evenodd"
viewBox="0 0 77 94.63"
 xmlns:xlink="http://www.w3.org/1999/xlink"
 xmlns:xodm="http://www.corel.com/coreldraw/odm/2003">
 <defs>
  <style type="text/css">
   <![CDATA[
    .fil0 {fill:url(#id0)}
   ]]>
  </style>
  <linearGradient id="id0" gradientUnits="userSpaceOnUse" x1="38.5" y1="-1.18" x2="38.5" y2="101.73">
   <stop offset="0" style="stop-opacity:1; stop-color:#FFBF00"/>
   <stop offset="1" style="stop-opacity:1; stop-color:#F2A50C"/>
  </linearGradient>
 </defs>
 <g id="Camada_x0020_1">
  <metadata id="CorelCorpID_0Corel-Layer"/>
  <path class="fil0" d="M13.37 22.23c-4.63,0 -8.51,3.51 -9.12,7.98l50.19 0c-0.61,-4.47 -4.5,-7.98 -9.12,-7.98l-0.87 0 -16.15 0 -14.06 0 -0.87 0zm-1.22 20.14l-7.98 0 0 28.13 50.35 0 0 -4 -18.23 0c-1.04,0 -2.09,-0.87 -2.09,-2.08 0,-1.22 0.87,-2.09 2.09,-2.09l18.23 0 0 -27.95 -50.35 0 0 3.82 7.98 0c1.05,0 2.09,0.87 2.09,2.08 0,1.22 -0.87,2.09 -2.09,2.09zm-11.98 -1.26c-0.11,-0.25 -0.17,-0.53 -0.17,-0.83 0,-0.27 0.06,-0.55 0.17,-0.8l0 -7.18 0 -0.87c0,-6.88 5.26,-12.53 11.98,-13.14l0 -6.08 0 -0.05 0 -0.06 0 -10.02c0,-1.04 0.87,-2.08 2.09,-2.08l30.21 0c1.04,0 2.08,0.87 2.08,2.08l0 5.42c4.03,-1.42 11.89,-3.45 17.71,-0.03 4,2.25 6.25,6.6 6.77,12.85 1.57,19.62 5.56,25 5.56,25 0.7,0.87 0.52,2.08 -0.35,2.78 -0.69,0.17 -1.21,0.34 -1.56,0.34 -0.52,0 -1.21,-0.17 -1.56,-0.69 -0.52,-0.52 -4.86,-6.6 -6.43,-27.26 -0.34,-4.69 -1.91,-7.99 -4.68,-9.55 -4.67,-2.65 -11.99,-0.69 -15.46,0.75l0 6.6c6.72,0.61 11.98,6.26 11.98,13.14l0 0.04c0.11,0.25 0.18,0.53 0.18,0.83l0 40.28c-0.04,0.2 -0.1,0.39 -0.18,0.57l0 0.3c0,6.21 -4.29,11.42 -10.07,12.82l0 6.28c0,1.21 -0.87,2.08 -2.08,2.08l-32.12 0c-1.04,0 -2.09,-0.87 -2.09,-2.08l0 -5.96c-6.72,-0.62 -11.98,-6.26 -11.98,-13.14l0 -1.04 0 -31.3zm20.66 9.94l5.56 0c0.69,0 1.39,0.35 1.74,1.04 0.34,0.7 0.34,1.39 0,1.91l-1.91 3.65 10.76 -9.38 -5.73 -0.69c-0.69,0 -1.21,-0.52 -1.56,-1.05 -0.35,-0.52 -0.35,-1.21 0,-1.91l2.26 -4.16 -5.56 0 -5.56 10.59zm-2.08 17.71c-0.52,0 -0.87,-0.17 -1.22,-0.52 -0.69,-0.7 -1.04,-1.74 -0.51,-2.61l5.9 -10.59 -5.38 0c-0.7,0 -1.39,-0.34 -1.74,-1.04 -0.35,-0.69 -0.35,-1.39 0,-1.91l7.64 -14.76c0.35,-0.69 1.04,-1.04 1.74,-1.04l10.07 0c0.69,0 1.38,0.35 1.73,1.04 0.35,0.52 0.35,1.39 0,1.91l-2.43 4.52 7.3 0.86c0.86,0.18 1.38,0.7 1.73,1.39 0.35,0.7 0,1.57 -0.52,2.09l-23.09 20.14c-0.35,0.35 -0.7,0.52 -1.22,0.52zm-2.43 21.88l28.13 0 0 -4 -28.13 0 0 4zm-2.91 -7.99c0.25,-0.11 0.53,-0.17 0.83,-0.17l32.12 0c0.15,0 0.3,0.01 0.44,0.05 4.01,-0.67 7.19,-3.98 7.66,-8.04l-50.23 0c0.52,4.56 4.46,8.16 9.14,8.16l0.04 0zm22.88 -68.41l-5.91 0 0 3.99 12.16 0 0 -14.06 -26.22 0 0 5.9 9.9 0 0 -1.91c0,-1.04 0.86,-2.08 2.08,-2.08 1.22,0 2.08,0.87 2.08,2.08l0 1.91 5.91 0c1.04,0 2.08,0.87 2.08,2.09 0,1.21 -0.87,2.08 -2.08,2.08zm-10.07 0l-9.9 0 0 3.99 9.9 0 0 -3.99z"/>
 </g>
</svg>
