<?xml version="1.0" encoding="UTF-8"?>
<!DOCTYPE svg PUBLIC "-//W3C//DTD SVG 1.1//EN" "http://www.w3.org/Graphics/SVG/1.1/DTD/svg11.dtd">
<!-- Creator: CorelDRAW 2020 (64 Bit) -->
<svg xmlns="http://www.w3.org/2000/svg" xml:space="preserve" width="96px" height="93px" version="1.1" style="shape-rendering:geometricPrecision; text-rendering:geometricPrecision; image-rendering:optimizeQuality; fill-rule:evenodd; clip-rule:evenodd"
viewBox="0 0 96 93.46"
 xmlns:xlink="http://www.w3.org/1999/xlink"
 xmlns:xodm="http://www.corel.com/coreldraw/odm/2003">
 <defs>
  <style type="text/css">
   <![CDATA[
    .fil0 {fill:url(#id0)}
   ]]>
  </style>
  <linearGradient id="id0" gradientUnits="userSpaceOnUse" x1="48" y1="-1.17" x2="48" y2="100.47">
   <stop offset="0" style="stop-opacity:1; stop-color:#FFBF00"/>
   <stop offset="1" style="stop-opacity:1; stop-color:#F2A50C"/>
  </linearGradient>
 </defs>
 <g id="Camada_x0020_1">
  <metadata id="CorelCorpID_0Corel-Layer"/>
  <path class="fil0" d="M52.82 56.36l13.96 13.42 8.84 -15.37 -18.55 -5.47c-0.18,1.41 -0.71,2.82 -1.42,4.06 -0.7,1.41 -1.76,2.47 -2.83,3.36zm27.32 -37.18c0.02,0.35 -0.02,0.7 -0.11,0.96l-2.88 6.24 4.29 -4.3c0.21,-0.2 0.53,-0.4 0.87,-0.51l7.44 -7.44 -6.89 -1.06c-0.71,-0.17 -1.24,-0.53 -1.59,-1.06 -0.35,-0.53 -0.35,-1.23 0,-1.94l3.18 -6.36 -6.71 0 -4.99 13.25 5.34 0c0.71,0 1.41,0.35 1.77,0.88 0.23,0.36 0.31,0.87 0.28,1.34zm-8.86 -9.87l3.1 -8.08c0.35,-0.7 1.06,-1.23 1.94,-1.23l11.31 0c0.71,0 1.41,0.35 1.77,0.88 0.35,0.53 0.35,1.42 0.17,1.95l-3.35 6.89 8.12 1.23c0.71,0.18 1.42,0.71 1.59,1.42 0.18,0.7 0,1.59 -0.53,2.12l-9.75 9.61c4.12,7.03 6.4,15.07 6.4,23.25 0,6 -1.24,12.01 -3.71,17.66 -2.3,5.48 -5.66,10.25 -9.9,14.49 -8.83,9.19 -20.49,13.96 -32.68,13.96 -6.01,0 -12.02,-1.24 -17.67,-3.71 -5.47,-2.3 -10.25,-5.66 -14.49,-9.89 -4.24,-4.24 -7.59,-9.19 -9.89,-14.49 -2.47,-5.66 -3.71,-11.49 -3.71,-17.67 0,-12.19 4.77,-23.85 13.43,-32.68 4.24,-4.24 9.18,-7.6 14.48,-9.9 5.66,-2.47 11.49,-3.71 17.67,-3.71 9.24,0 18.04,2.68 25.7,7.9zm-25.52 -3.66c-22.62,0 -41.52,19.26 -41.52,42.05 0,22.61 19.08,41.52 41.52,41.52 22.79,0.17 42.05,-18.9 42.05,-41.34 0,-7.25 -1.95,-14.31 -5.48,-20.5l-10.78 10.78c-0.7,0.71 -1.76,0.88 -2.65,0.18 -0.88,-0.53 -1.06,-1.59 -0.71,-2.48l6.54 -14.31 -5.12 0c-0.71,0 -1.24,-0.35 -1.77,-0.88 -0.35,-0.53 -0.53,-1.24 -0.17,-1.94l1.94 -5.3c-6.89,-5.13 -15.19,-7.78 -23.85,-7.78zm-29.51 48.76l8.84 15.37 13.95 -13.42c-1.23,-0.89 -2.11,-1.95 -2.82,-3.36 -0.71,-1.24 -1.24,-2.65 -1.42,-4.06l-18.55 5.47zm8.48 20.67c-0.17,0 -0.17,0 -0.35,0 -0.71,-0.17 -1.24,-0.53 -1.41,-1.06l-11.49 -19.78c-0.35,-0.53 -0.35,-1.24 -0.17,-1.77 0.17,-0.53 0.7,-1.06 1.41,-1.24l22.46 -6.53c0.51,-1.92 1.54,-3.69 2.98,-5.13l0.01 0 -5.49 -22.61c-0.17,-0.53 0,-1.24 0.36,-1.77 0.35,-0.53 1.06,-0.7 1.59,-0.7l22.79 0c0.71,0 1.23,0.35 1.59,0.7 0.35,0.53 0.53,1.06 0.35,1.77l-5.48 22.57c1.29,1.31 2.25,2.93 2.76,4.75l22.69 6.6c0.53,0.18 1.05,0.71 1.41,1.24 0.35,0.53 0.18,1.23 -0.18,1.76l-11.48 20.14c-0.36,0.54 -0.89,0.89 -1.41,1.06 -0.18,0 -0.36,0 -0.36,0 -0.53,0 -1.06,-0.17 -1.41,-0.53l-16.96 -16.29c-0.96,0.27 -1.97,0.39 -3.01,0.39 -0.87,0 -1.72,-0.1 -2.54,-0.31l-17.24 16.57c-0.36,0 -0.89,0.17 -1.42,0.17zm14.28 -28.95c0.02,0.18 0.03,0.35 0.03,0.51 -0.35,1.59 0,3 0.89,4.42l0 0.1c1.25,2.01 3.48,3.43 6,3.43 0.88,0 1.72,-0.16 2.5,-0.46 0.11,-0.09 0.22,-0.17 0.33,-0.25 0.93,-0.34 1.78,-0.92 2.46,-1.67l0.04 -0.06 0.05 -0.05 0.05 -0.06c0.29,-0.35 0.55,-0.74 0.76,-1.16 0,0 0,0 0,-0.18 0.21,-0.3 0.39,-0.62 0.52,-0.95 0.23,-0.7 0.36,-1.45 0.36,-2.23 0,-2.17 -1,-4.13 -2.56,-5.43l-0.09 -0.04c-1.24,-0.89 -2.83,-1.42 -4.42,-1.42 -1.59,0 -3.18,0.53 -4.24,1.42 -0.12,0.08 -0.25,0.15 -0.39,0.21 -1.13,1 -1.97,2.35 -2.29,3.87zm11.38 -9l4.56 -18.76 -17.67 0 4.58 18.7c1.3,-0.56 2.69,-0.85 4.07,-0.85 1.59,0 3.09,0.32 4.46,0.91z"/>
 </g>
</svg>
